<svg xmlns="http://www.w3.org/2000/svg" width="1021.001" height="14.366" viewBox="0 0 1021.001 14.366">
  <path id="합치기_2" data-name="합치기 2" d="M995.477,14.366,1008.237,0,1021,14.366Zm-25.526,0L982.714,0l12.763,14.366Zm-25.524,0L957.189,0,969.95,14.366Zm-25.524,0L931.662,0l12.764,14.366Zm-25.526,0L906.138,0,918.9,14.366Zm-25.524,0L880.614,0l12.761,14.366Zm-25.524,0L855.088,0l12.763,14.366Zm-25.526,0L829.563,0l12.763,14.366Zm-25.523,0L804.039,0,816.8,14.366Zm-25.524,0L778.513,0l12.764,14.366Zm-25.527,0L752.988,0l12.764,14.366Zm-25.524,0L727.464,0l12.761,14.366Zm-25.523,0L701.938,0,714.7,14.366Zm-25.526,0L676.413,0l12.764,14.366Zm-25.524,0L650.889,0,663.65,14.366Zm-25.524,0L625.362,0l12.764,14.366Zm-25.527,0L599.839,0,612.6,14.366Zm-25.524,0L574.314,0l12.76,14.366Zm-25.523,0L548.79,0l12.76,14.366Zm-25.523,0L523.263,0l12.764,14.366Zm-25.528,0L497.738,0,510.5,14.366Zm-25.524,0L472.214,0l12.761,14.366Zm-25.523,0L446.688,0,459.45,14.366Zm-25.526,0L421.163,0l12.764,14.366Zm-25.524,0L395.639,0,408.4,14.366Zm-25.524,0L370.112,0l12.764,14.366Zm-25.526,0L344.589,0l12.763,14.366Zm-25.524,0L319.064,0l12.761,14.366Zm-25.524,0L293.537,0,306.3,14.366Zm-25.526,0L268.013,0l12.764,14.366Zm-25.524,0L242.488,0,255.25,14.366Zm-25.524,0L216.963,0l12.763,14.366Zm-25.526,0L191.438,0,204.2,14.366Zm-25.523,0L165.914,0l12.761,14.366Zm-25.524,0L140.387,0l12.765,14.366Zm-25.528,0L114.863,0l12.764,14.366Zm-25.523,0L89.339,0,102.1,14.366Zm-25.524,0L63.812,0,76.575,14.366Zm-25.523,0L38.287,0,51.051,14.366ZM0,14.366,12.763,0,25.527,14.366Z" fill="#fff"/>
</svg>
