<svg xmlns="http://www.w3.org/2000/svg" width="199.974" height="76.215" viewBox="0 0 199.974 76.215">
  <g id="그룹_6" data-name="그룹 6" transform="translate(-265.239 -212.143)">
    <g id="그룹_3" data-name="그룹 3" transform="translate(265.239 212.143)">
      <g id="그룹_2" data-name="그룹 2">
        <g id="그룹_1" data-name="그룹 1">
          <path id="패스_1" data-name="패스 1" d="M303.348,212.143a38.108,38.108,0,1,0,38.106,38.114A38.157,38.157,0,0,0,303.348,212.143Zm.224,68.166h-.442c-16.074,0-29.15-13.481-29.15-30.045s13.077-30.052,29.15-30.052h.442c16.07,0,29.144,13.478,29.144,30.052S319.643,280.309,303.572,280.309Z" transform="translate(-265.239 -212.143)" fill="#1a1818"/>
          <path id="패스_2" data-name="패스 2" d="M539.626,233.928v-8.975l-.085-.1a38.1,38.1,0,1,0,0,50.807l.085-.1v-9.3h-8.557v5.723a28.551,28.551,0,0,1-20.13,8.335c-16.074,0-29.152-13.481-29.152-30.045s13.078-30.052,29.152-30.052a28.57,28.57,0,0,1,20.13,8.33v5.385Z" transform="translate(-339.652 -212.143)" fill="#1a1818"/>
          <path id="패스_3" data-name="패스 3" d="M406.68,215.431v7.34h8.1v28.677c0,19.74-6.886,29.491-25.312,29.491v7.347c23.44,0,34.7-11.189,34.7-34.8v-38.06Z" transform="translate(-309.721 -213.32)" fill="#1a1818"/>
        </g>
      </g>
    </g>
  </g>
</svg>
