<svg xmlns="http://www.w3.org/2000/svg" width="494.849" height="32.331" viewBox="0 0 494.849 32.331">
  <g id="그룹_5" data-name="그룹 5" transform="translate(0 0)">
    <g id="그룹_4" data-name="그룹 4">
      <path id="패스_4" data-name="패스 4" d="M289.148,360.106h-.084L284,362.843l-.764-3,6.359-3.408h3.36v29.383h-3.81Z" transform="translate(-283.24 -353.981)" fill="#4b82c3"/>
      <path id="패스_5" data-name="패스 5" d="M300.659,356.517a6.128,6.128,0,0,1,4.508,1.887,6.4,6.4,0,0,1-.009,9.045,6.33,6.33,0,0,1-9.007,0,6.4,6.4,0,0,1-.007-9.045A6.119,6.119,0,0,1,300.659,356.517Zm14.5-.081h3.169L299.5,385.819h-3.166Zm-14.546,3.176a3.321,3.321,0,0,0-3.322,3.324,3.122,3.122,0,0,0,.986,2.317,3.325,3.325,0,0,0,4.685,0,3.135,3.135,0,0,0,.972-2.317,3.292,3.292,0,0,0-3.32-3.324Zm13.551,13.411a6.411,6.411,0,0,1,6.4,6.38,6.01,6.01,0,0,1-1.874,4.457,6.506,6.506,0,0,1-9.062,0,5.978,5.978,0,0,1-1.873-4.457,6.12,6.12,0,0,1,1.882-4.511A6.221,6.221,0,0,1,314.166,373.023Zm-.039,3.1a3.115,3.115,0,0,0-2.3.963,3.155,3.155,0,0,0-.956,2.319,3.2,3.2,0,0,0,.956,2.345,3.094,3.094,0,0,0,2.3.975,3.292,3.292,0,0,0,3.322-3.32,3.14,3.14,0,0,0-.965-2.326A3.231,3.231,0,0,0,314.127,376.12Z" transform="translate(-275.36 -353.981)" fill="#4b82c3"/>
      <path id="패스_6" data-name="패스 6" d="M318.233,366.393c0-1.969-.045-3.447-.183-5.146h2.019L320.2,365h.091a7.522,7.522,0,0,1,6.988-4.254,6.583,6.583,0,0,1,6.183,4.662h.084a8.452,8.452,0,0,1,2.2-2.912,7.4,7.4,0,0,1,5.106-1.75c2.1,0,7.031,1.169,7.031,9.318v12.672h-2.151V370.247c0-4.835-1.88-7.706-5.593-7.706a6.3,6.3,0,0,0-5.648,4.254,7.866,7.866,0,0,0-.358,2.151v13.793h-2.151V369.259c0-3.848-1.831-6.719-5.327-6.719-2.869,0-5.151,2.335-5.953,4.835a7.592,7.592,0,0,0-.314,2.11v13.253h-2.151Z" transform="translate(-258.383 -350.902)" fill="#fff"/>
      <path id="패스_7" data-name="패스 7" d="M354.253,377.636a31.367,31.367,0,0,0,.321,5.1H352.6l-.314-3.089h-.092a8.208,8.208,0,0,1-6.894,3.582c-4.347,0-6.315-3.044-6.315-5.912,0-4.969,4.347-7.969,13.125-7.878v-.586c0-2.1-.406-6.358-5.509-6.316a9.425,9.425,0,0,0-5.427,1.615l-.665-1.565a11.864,11.864,0,0,1,6.313-1.841c6.22,0,7.432,4.662,7.432,8.469Zm-2.144-6.407c-4.707-.134-10.883.586-10.883,5.732a4.108,4.108,0,0,0,4.294,4.481,6.425,6.425,0,0,0,6.359-4.3,3.521,3.521,0,0,0,.23-1.3Z" transform="translate(-243.435 -350.902)" fill="#fff"/>
      <path id="패스_8" data-name="패스 8" d="M354.591,375.691h.093c.535-.668,1.385-1.658,2.057-2.371l7.616-7.97h2.593l-8.685,8.906,9.894,12.585h-2.593l-8.776-11.284-2.2,2.328v8.956H352.44V355h2.151Z" transform="translate(-233.826 -355.004)" fill="#fff"/>
      <path id="패스_9" data-name="패스 9" d="M365.391,371.77c0,6.848,3.764,9.585,8.2,9.585a12.46,12.46,0,0,0,5.955-1.214l.542,1.659a14.255,14.255,0,0,1-6.764,1.387c-6.184,0-10.034-4.477-10.034-10.79,0-7.168,4.126-11.649,9.674-11.649,7.031,0,8.37,6.627,8.37,9.719a6.033,6.033,0,0,1-.082,1.3Zm13.706-1.7c.045-3-1.21-7.526-6.407-7.526-4.743,0-6.764,4.213-7.161,7.526Z" transform="translate(-226.083 -350.902)" fill="#fff"/>
      <path id="패스_10" data-name="패스 10" d="M377.323,379.919a9.495,9.495,0,0,0,4.835,1.478c3.406,0,5.014-1.836,5.014-4.076,0-2.372-1.431-3.627-4.523-4.882-3.534-1.344-5.463-3.267-5.463-5.866,0-3.135,2.463-5.824,6.627-5.824a8.428,8.428,0,0,1,4.751,1.347l-.811,1.745a7.213,7.213,0,0,0-4.292-1.3c-2.732,0-4.163,1.752-4.163,3.72,0,2.239,1.515,3.183,4.431,4.388,3.488,1.39,5.555,3.135,5.555,6.406,0,3.67-2.869,6.135-7.262,6.135a10.576,10.576,0,0,1-5.463-1.478Z" transform="translate(-216.604 -350.902)" fill="#fff"/>
      <path id="패스_11" data-name="패스 11" d="M397.985,358.27v4.748h6.136v1.745h-6.136v13.968c0,2.737.857,4.436,3.137,4.436a7.929,7.929,0,0,0,2.465-.315l.267,1.616a8.555,8.555,0,0,1-3,.49,4.559,4.559,0,0,1-3.673-1.478c-.987-1.118-1.347-2.953-1.347-5.151V364.763h-3.618v-1.745h3.618v-3.942Z" transform="translate(-205.424 -352.672)" fill="#fff"/>
      <path id="패스_12" data-name="패스 12" d="M402.737,355h2.151V369.2h.084a8.04,8.04,0,0,1,2.916-3.092,8.409,8.409,0,0,1,4.338-1.255c2.021,0,7.485,1.035,7.485,9.049v12.941h-2.149V374.126c0-3.853-1.524-7.391-5.915-7.391a7.111,7.111,0,0,0-6.491,4.835,6.367,6.367,0,0,0-.267,2.151v13.119h-2.151Z" transform="translate(-197.911 -355.004)" fill="#fff"/>
      <path id="패스_13" data-name="패스 13" d="M418.044,371.77c0,6.848,3.757,9.585,8.2,9.585a12.482,12.482,0,0,0,5.955-1.214l.535,1.659a14.212,14.212,0,0,1-6.757,1.387c-6.183,0-10.032-4.477-10.032-10.79,0-7.168,4.117-11.649,9.672-11.649,7.033,0,8.373,6.627,8.373,9.719a5.793,5.793,0,0,1-.086,1.3Zm13.706-1.7c.045-3-1.208-7.526-6.405-7.526-4.745,0-6.765,4.213-7.163,7.526Z" transform="translate(-188.484 -350.902)" fill="#fff"/>
      <path id="패스_14" data-name="패스 14" d="M436.11,356.511a50.3,50.3,0,0,1,8.286-.672c5.6,0,9.582,1.346,12.23,3.764,2.725,2.461,4.294,5.955,4.294,10.835,0,4.925-1.568,8.954-4.338,11.733-2.871,2.825-7.523,4.345-13.394,4.345a63.016,63.016,0,0,1-7.077-.358ZM440,383.2a33.491,33.491,0,0,0,3.942.175c8.378,0,12.856-4.655,12.856-12.806.046-7.122-3.987-11.642-12.221-11.642a22.336,22.336,0,0,0-4.577.4Z" transform="translate(-174.08 -354.408)" fill="#bfce18"/>
      <path id="패스_15" data-name="패스 15" d="M457.952,355.971v30.18h-3.939v-30.18Z" transform="translate(-161.296 -354.314)" fill="#bfce18"/>
      <path id="패스_16" data-name="패스 16" d="M460.78,355.971h16.256v3.267H464.722v10.031h11.371v3.226H464.722v13.656H460.78Z" transform="translate(-156.464 -354.314)" fill="#bfce18"/>
      <path id="패스_17" data-name="패스 17" d="M474.026,355.971h16.265v3.267H477.968v10.031h11.38v3.226h-11.38v13.656h-3.942Z" transform="translate(-147.005 -354.314)" fill="#bfce18"/>
      <path id="패스_18" data-name="패스 18" d="M502.9,372H491.219v10.883H504.3v3.267H487.277v-30.18h16.345v3.267h-12.4v9.537H502.9Z" transform="translate(-137.543 -354.314)" fill="#bfce18"/>
      <path id="패스_19" data-name="패스 19" d="M500.681,356.466a45.55,45.55,0,0,1,7.482-.627c4.165,0,6.9.807,8.733,2.463a7.72,7.72,0,0,1,2.37,5.778,7.925,7.925,0,0,1-5.639,7.655v.134c2.28.809,3.673,2.958,4.385,6.092.987,4.21,1.707,7.12,2.326,8.284h-4.025a37.705,37.705,0,0,1-1.975-7.208c-.895-4.163-2.547-5.734-6.083-5.867h-3.673v13.075h-3.9Zm3.9,13.747h3.978c4.172,0,6.812-2.283,6.812-5.732,0-3.9-2.825-5.6-6.942-5.6a17.033,17.033,0,0,0-3.848.315Z" transform="translate(-127.972 -354.408)" fill="#bfce18"/>
      <path id="패스_20" data-name="패스 20" d="M530.864,372H519.18v10.883h13.07v3.267h-17.01v-30.18h16.345v3.267h-12.4v9.537h11.685Z" transform="translate(-117.576 -354.314)" fill="#bfce18"/>
      <path id="패스_21" data-name="패스 21" d="M528.642,386.151v-30.18h4.3l9.628,15.269a83.88,83.88,0,0,1,5.372,9.808l.137-.048c-.36-4.028-.444-7.7-.444-12.4V355.971H551.3v30.18h-3.941l-9.58-15.312a87.556,87.556,0,0,1-5.595-10.079l-.137.046c.223,3.807.267,7.434.267,12.448v12.9Z" transform="translate(-108.006 -354.314)" fill="#bfce18"/>
      <path id="패스_22" data-name="패스 22" d="M568.153,385.419a19.189,19.189,0,0,1-7.976,1.431c-8.51,0-14.861-5.372-14.861-15.315,0-9.492,6.406-15.852,15.758-15.852a16.4,16.4,0,0,1,7.17,1.342l-.987,3.178a13.832,13.832,0,0,0-6.045-1.253c-7.077,0-11.777,4.525-11.777,12.451,0,7.434,4.254,12.136,11.556,12.136a15.645,15.645,0,0,0,6.4-1.255Z" transform="translate(-96.099 -354.519)" fill="#bfce18"/>
      <path id="패스_23" data-name="패스 23" d="M577.64,372H565.953v10.883h13.072v3.267h-17.01v-30.18h16.339v3.267h-12.4v9.537H577.64Z" transform="translate(-84.176 -354.314)" fill="#bfce18"/>
    </g>
  </g>
</svg>
